<?xml version="1.0" encoding="UTF-8"?>
<svg id="Layer_2" data-name="Layer 2" xmlns="http://www.w3.org/2000/svg" viewBox="0 0 865 865">
  <defs>
    <style>
      .cls-1 {
        fill: #fff;
      }

      .cls-2 {
        fill: #282828;
      }
    </style>
  </defs>
  <g id="Layer_1-2" data-name="Layer 1">
    <rect class="cls-2" width="865" height="865" rx="88.17" ry="88.17"/>
    <path class="cls-1" d="M682.4,463.87c-9.33-9.41-17.57-20.14-27.45-29.08-.99-.97-1.35-2.01-.99-3.38.72-2.73,34.6-34.96,39.72-40.11,8.44-8.49,15.66-13.02,22.25-24.15,24.7-41.65,10.27-87.49-28.4-113.54-20.29-13.67-40.47-15.47-54.89-37.92-21.82-33.97-28.63-67.37-76.13-76.16-60.36-11.17-85.31,39.71-124.68,72.28-3.88,0-47.45-47.59-55.34-54.16-34.85-29.04-87.24-25.11-116.63,9.56-16.16,19.07-22.24,48.29-41.13,63.56-11.2,9.05-25.73,12.82-37.86,20.45-33.9,21.33-51.92,55.91-40.67,96.11,10.05,35.89,48.06,56.8,69.67,85.04-31.36,38.32-78.35,59.86-72.51,117.59,4.81,47.57,42.72,59.31,75.94,81.11,22.25,14.6,24.95,34.98,38.42,55.56,18.36,28.07,47.42,43.07,81.29,40.05,44.96-4.02,67.59-48.75,99.84-73.62l56.08,55.83c35.42,27.92,86.86,23.1,116.05-11.36,11.93-14.08,16.97-30.16,26.02-45.36,12.38-20.78,27.07-23.4,46.24-34.67,36.26-21.32,55.96-48.29,48.01-91.77-6.43-35.18-20.35-39.15-42.85-61.84ZM512.42,595.04c-11.61-19.92-5.87-34.26-11.04-54.38-15.58-60.62-99.28-72.66-131.05-18.13-16.64,28.56-1.27,57.72-26.4,83.62-50.92,52.46-135.08-14.08-94.58-76.06,26.03-39.84,66.94-16.62,100.39-40.03,42.07-29.45,38.26-92.38-5.78-117.96-28.29-16.43-55.45-1.68-82.94-24.16-58.62-47.94,7.79-139.59,72.3-97.2,38.33,25.19,19.07,56.92,35.02,88.69,23.81,47.44,91.72,52.99,122.23,9.48,22.51-32.1.89-66.89,36.53-95.5,57.09-45.82,131.78,33.68,83.31,87.99-28.17,31.56-62.14,11.98-93.83,33.51-30.47,20.71-39.38,58.98-22.24,91.35,7.96,15.03,21.03,26.68,37.17,32.43,32.25,11.49,46.19.76,68.45,16.05,1.72,1.18,22.09,15.65,25.3,41.32,3,24.06-10.1,49.82-32.68,61.24-30.39,15.37-67.42-.4-80.15-22.25Z"/>
  </g>
</svg>